<?xml version="1.0" encoding="utf-8"?>
<!-- Generator: Adobe Illustrator 22.1.0, SVG Export Plug-In . SVG Version: 6.00 Build 0)  -->
<svg version="1.1" id="Layer_1" xmlns="http://www.w3.org/2000/svg" xmlns:xlink="http://www.w3.org/1999/xlink" x="0px" y="0px"
	 viewBox="0 0 2100 513" style="enable-background:new 0 0 2100 513;" xml:space="preserve">
<style type="text/css">
	.st0{fill:#F3F7ED;}
</style>
<g>
	<path class="st0" d="M480.4,372.6c2.5,4,3.8,9.5,3.8,16.5c0,13-3.2,23.3-9.5,31c-16,19.3-32.2,34.2-48.5,44.8
		c-16.3,10.5-35.7,15.8-58,15.8c-21.7,0-40.1-5.8-55.2-17.5c-15.2-11.7-29.6-31.7-43.2-60c-11-22.7-19.7-39.4-26-50.2
		c-6.3-10.8-12.6-18.6-18.8-23.2c-6.2-4.7-13.8-7.5-22.8-8.5c-1.3,7-5.2,29-11.5,66c-2.7,16.7-4.3,26.8-5,30.5
		c-3.3,20.3-10,35.9-20,46.8c-10,10.8-25.2,16.2-45.5,16.2c-22.3,0-42.1-6.6-59.2-19.8c-17.2-13.2-30.4-31.5-39.8-55
		c-9.3-23.5-14-50.2-14-80.2c0-56,9.8-104.3,29.2-145c19.5-40.7,46.8-71.8,82-93.2c35.2-21.5,75.8-32.2,121.8-32.2
		c32,0,58.8,4.8,80.5,14.5c21.7,9.7,37.8,23,48.2,40s15.8,36.2,15.8,57.5c0,18.7-4.4,36.9-13.2,54.8c-8.8,17.8-22.1,33.6-39.8,47.2
		c-17.7,13.7-39.2,23.8-64.5,30.5c16,4.3,28.3,11.3,37,21c8.7,9.7,17.3,23.8,26,42.5c9.3,20,18.6,34.7,27.8,44
		c9.2,9.3,19.8,14,31.8,14c10.7,0,20.8-3.6,30.5-10.8c9.7-7.2,21.8-19.4,36.5-36.8c4-4.7,8.5-7,13.5-7
		C474.5,366.6,477.9,368.6,480.4,372.6z M133.2,320.6c-11.3,0-19.1-2.7-23.2-8c-4.2-5.3-6.2-11.3-6.2-18c0-8,2.6-14.3,7.8-19
		c5.2-4.7,11.1-7,17.8-7h12.5c5.3-32.7,10.3-60.8,15-84.5c4.3-21.7,18.3-32.5,42-32.5c19,0,28.5,8.5,28.5,25.5
		c0,3.7-0.2,6.5-0.5,8.5l-15,83c18-1,34.4-5.3,49.2-13c14.8-7.7,26.7-18.3,35.5-32c8.8-13.7,13.2-29.2,13.2-46.5
		c0-21-7.2-37.5-21.5-49.5c-14.3-12-35.3-18-63-18c-32.7,0-61.2,8.1-85.8,24.2c-24.5,16.2-43.6,40.2-57.2,72
		c-13.7,31.8-20.5,70.6-20.5,116.2c0,21.3,2.2,39.7,6.5,55c4.3,15.3,9.7,26.8,16,34.5c6.3,7.7,12.3,11.5,18,11.5
		c4.3,0,7.9-2.2,10.8-6.5c2.8-4.3,5.1-11.3,6.8-21L133.2,320.6z"/>
	<path class="st0" d="M666.9,372.6c2.5,4,3.8,9.5,3.8,16.5c0,13.3-3.2,23.7-9.5,31c-12.3,15-29.8,28.8-52.2,41.5
		c-22.5,12.7-46.6,19-72.2,19c-35,0-62.2-9.5-81.5-28.5c-19.3-19-29-45-29-78c0-23,4.8-44.4,14.5-64.2c9.7-19.8,23.1-35.6,40.2-47.2
		c17.2-11.7,36.6-17.5,58.2-17.5c19.3,0,34.8,5.8,46.5,17.2c11.7,11.5,17.5,27.1,17.5,46.8c0,23-8.2,42.8-24.8,59.2
		s-44.4,29.6-83.8,39.2c8.3,15.3,24.2,23,47.5,23c15,0,32.1-5.2,51.2-15.8c19.2-10.5,35.8-24.2,49.8-41.2c4-4.7,8.5-7,13.5-7
		C661,366.6,664.4,368.6,666.9,372.6z M499.4,315.6c-8.5,14.3-12.8,31.7-12.8,52v1c19.7-4.7,35.2-11.7,46.5-21
		c11.3-9.3,17-20.2,17-32.5c0-6.3-1.8-11.4-5.2-15.2c-3.5-3.8-8.2-5.8-14.2-5.8C518.3,294.1,507.9,301.2,499.4,315.6z"/>
	<path class="st0" d="M639.7,458.1c-12.3-15-18.5-34.7-18.5-59c0-26.7,6.2-51.9,18.5-75.8c12.3-23.8,28.8-43,49.2-57.5
		s42.2-21.8,65.2-21.8c7.3,0,12.2,1.4,14.8,4.2c2.5,2.8,4.6,7.9,6.2,15.2c7-1.3,14.3-2,22-2c16.3,0,24.5,5.8,24.5,17.5
		c0,7-2.5,23.7-7.5,50c-7.7,38.3-11.5,65-11.5,80c0,5,1.2,9,3.8,12s5.8,4.5,9.8,4.5c6.3,0,14-4.1,23-12.2c9-8.2,21.2-21.4,36.5-39.8
		c4-4.7,8.5-7,13.5-7c4.3,0,7.8,2,10.2,6s3.8,9.5,3.8,16.5c0,13.3-3.2,23.7-9.5,31c-13.7,17-28.2,31.3-43.5,43
		c-15.3,11.7-30.2,17.5-44.5,17.5c-11,0-21.1-3.8-30.2-11.2c-9.2-7.5-16.1-17.8-20.8-30.8c-17.3,28-39.2,42-65.5,42
		C668.5,480.6,652,473.1,639.7,458.1z M728.2,417.1c6.7-8.7,11.5-20.2,14.5-34.5l18.5-92c-14,0.3-26.9,5.6-38.8,15.8
		c-11.8,10.2-21.2,23.6-28.2,40.2c-7,16.7-10.5,34.3-10.5,53c0,10.3,2.1,18,6.2,23c4.2,5,9.9,7.5,17.2,7.5
		C714.5,430.1,721.5,425.7,728.2,417.1z"/>
	<path class="st0" d="M1062.4,372.6c2.5,4,3.8,9.5,3.8,16.5c0,13.3-3.2,23.7-9.5,31c-14.3,17.7-29.9,32.2-46.8,43.5
		c-16.8,11.3-35.9,17-57.2,17c-29.3,0-51.1-13.3-65.2-40c-14.2-26.7-21.2-61.2-21.2-103.5c0-40.7,5.2-87,15.8-139s26-96.7,46.5-134
		c20.5-37.3,44.9-56,73.2-56c16,0,28.6,7.4,37.8,22.2c9.2,14.8,13.8,36.1,13.8,63.8c0,39.7-11,85.7-33,138
		c-22,52.3-51.8,104.2-89.5,155.5c2.3,13.7,6.2,23.4,11.5,29.2c5.3,5.8,12.3,8.8,21,8.8c13.7,0,25.7-3.9,36-11.8
		c10.3-7.8,23.5-21.2,39.5-40.2c4-4.7,8.5-7,13.5-7C1056.5,366.6,1059.9,368.6,1062.4,372.6z M964.6,99.1
		c-9.7,27.7-18.2,62-25.5,103c-7.3,41-11.3,80.3-12,118c23.7-39,42.5-78.1,56.5-117.2c14-39.2,21-74.9,21-107.2c0-25.3-4.7-38-14-38
		C983,57.6,974.3,71.4,964.6,99.1z"/>
	<path class="st0" d="M1091.1,472.3c-5.3-5.5-8-15.9-8-31.2c0-10.3,1.1-23.6,3.2-39.8c2.2-16.2,5.8-38.4,10.8-66.8
		c8.7-52.3,15.5-97.7,20.5-136c3-24,4.5-44,4.5-60c0-15-5.5-22.5-16.5-22.5c-8.7,0-19.1,4.4-31.2,13.2
		c-12.2,8.8-25.6,22.9-40.2,42.2c-4.7,6.3-9.8,9.5-15.5,9.5c-4.7,0-8.8-2.2-12.2-6.8s-5.2-9.6-5.2-15.2c0-5.3,1.1-10.8,3.2-16.2
		c2.2-5.5,5.8-11.8,10.8-18.8c16-22.3,33.8-39.6,53.5-51.8c19.7-12.2,39.3-18.2,59-18.2c18.3,0,32.4,5.8,42.2,17.5
		c9.8,11.7,14.8,28.7,14.8,51c0,9-0.8,19.6-2.5,31.8c-1.7,12.2-3.2,22.1-4.5,29.8c-1.3,7.7-2.3,13-3,16c19-54.3,40.3-92.2,64-113.8
		c23.7-21.5,49.7-32.2,78-32.2c21.7,0,38.8,7.7,51.2,23c12.5,15.3,18.8,37,18.8,65c0,11-1.5,24.7-4.5,41c16.7-46,36.2-79,58.5-99
		c22.3-20,48-30,77-30c23.3,0,41.2,7.5,53.8,22.5s18.8,36,18.8,63c0,14.7-2.2,32.5-6.5,53.5l-30.5,143c-3.3,16.7-5,31-5,43
		c0,14,3.2,24.5,9.8,31.5s15.6,10.5,27.2,10.5c11,0,21.8-3.7,32.2-11c10.5-7.3,22.9-19.5,37.2-36.5c4-4.7,8.5-7,13.5-7
		c4.3,0,7.8,2,10.2,6s3.8,9.5,3.8,16.5c0,13-3.2,23.3-9.5,31c-17.3,21-34.5,36.3-51.5,46c-17,9.7-34.8,14.5-53.5,14.5
		c-28.3,0-50.5-8.4-66.5-25.2c-16-16.8-24-39.4-24-67.8c0-19.7,4-48.2,12-85.5l20-91.5c0.7-3,1.8-8.3,3.5-16c1.7-7.7,3-14.9,4-21.8
		c1-6.8,1.5-13.6,1.5-20.2c0-11.7-2.2-20.4-6.8-26.2c-4.5-5.8-10.9-8.8-19.2-8.8c-15.7,0-32.1,10.1-49.2,30.2
		c-17.2,20.2-33.5,53.6-49,100.2c-15.5,46.7-28.1,107.3-37.8,182c-2.3,20-6.4,33.4-12.2,40.2c-5.8,6.8-15.2,10.2-28.2,10.2
		c-11.3,0-19.6-2.7-24.8-8c-5.2-5.3-7.8-15.3-7.8-30c0-13.7,1.8-31.6,5.5-53.8c3.7-22.2,8.3-48.2,14-78.2c15.3-80.7,23-132.7,23-156
		c0-12.7-2.4-22-7.2-28c-4.8-6-12.1-9-21.8-9c-16.3,0-33.2,9.2-50.5,27.8c-17.3,18.5-34.2,51.3-50.8,98.5
		c-16.5,47.2-30.2,110.9-41.2,191.2c-2.3,17-5.8,28.8-10.2,35.5c-4.5,6.7-13.2,10-26.2,10C1105.3,480.6,1096.5,477.8,1091.1,472.3z"
		/>
	<path class="st0" d="M1855.6,396.6c0,16.7-4.8,31.3-14.2,44c-9.5,12.7-22.9,22.5-40.2,29.5c-17.3,7-37.5,10.5-60.5,10.5
		c-32.3,0-57.6-6.3-75.8-19c-18.2-12.7-27.2-30.3-27.2-53c0-14.3,4.3-27.5,13-39.5c8.7-12,22.7-23.2,42-33.5
		c-12-8-21.1-17.6-27.2-28.8c-6.2-11.2-9.2-22.9-9.2-35.2c0-26.7,10-47.6,30-62.8c20-15.2,47.2-22.8,81.5-22.8
		c28.3,0,51.1,6.2,68.2,18.5c17.2,12.3,25.8,29,25.8,50c0,15.3-4.3,29.1-13,41.2c-8.7,12.2-22.7,23.4-42,33.8
		C1839.3,346.2,1855.6,368.6,1855.6,396.6z M1780.1,424.1c9-5.3,13.5-12.7,13.5-22c0-7.3-3.9-14.3-11.8-21
		c-7.8-6.7-22.2-14.7-43.2-24c-15.3,7-26,14.2-32,21.5c-6,7.3-9,15.3-9,24c0,9.3,4.1,16.6,12.2,21.8c8.2,5.2,19.2,7.8,33.2,7.8
		C1758.8,432.1,1771.1,429.4,1780.1,424.1z M1730.1,243.3c-8.3,5.8-12.5,14.2-12.5,25.2c0,15,12.7,28.3,38,40
		c17-8.3,28.9-16.2,35.8-23.5c6.8-7.3,10.2-15,10.2-23c0-18.3-12.7-27.5-38-27.5C1749.6,234.6,1738.5,237.5,1730.1,243.3z"/>
	<path class="st0" d="M1950.9,479.6c-9.2-8-13.8-17-13.8-27c0-8.7,3.2-16.2,9.5-22.5c6.3-6.3,15.7-9.5,28-9.5
		c4.3,0,9.4,0.4,15.2,1.2c5.8,0.8,10.2,1.4,13.2,1.8c-0.3-8.7-2.2-16.8-5.8-24.5c-3.5-7.7-7.9-15.1-13.2-22.2
		c-5.3-7.2-10.3-13.4-15-18.8c-10.3,19.7-20.6,36-30.8,49c-10.2,13-21.2,25.3-33.2,37c-6,6-12.3,9-19,9c-5.3,0-9.7-1.9-13-5.8
		c-3.3-3.8-5-8.6-5-14.2c0-6.7,2.3-12.8,7-18.5l6.5-8c18.3-22.7,32.2-41.3,41.5-56c6-9.7,12.1-21.2,18.2-34.5
		c6.2-13.3,14.2-31.5,24.2-54.5c6.3-14.7,19.5-22,39.5-22c9.3,0,15.8,0.8,19.5,2.5c3.7,1.7,5.5,4.3,5.5,8c0,2-0.7,5.2-2,9.5
		c-1.3,4.3-3.2,8.7-5.5,13c-6,12-9,22.2-9,30.5c0,5,1.8,10.5,5.2,16.5s8.9,13.5,16.2,22.5c10.7,14,18.8,25.9,24.2,35.8
		c5.5,9.8,8.2,20.6,8.2,32.2c0,14-3.2,27.2-9.8,39.8s-15.6,22.6-27.2,30.2c-11.7,7.7-25,11.5-40,11.5
		C1973.3,491.6,1960.1,487.6,1950.9,479.6z"/>
</g>
</svg>
